<?xml version="1.0" encoding="UTF-8" ?>
<!DOCTYPE svg PUBLIC "-//W3C//DTD SVG 1.1//EN" "http://www.w3.org/Graphics/SVG/1.1/DTD/svg11.dtd">
<svg width="1120pt" height="226pt" viewBox="0 0 1120 226" version="1.1" xmlns="http://www.w3.org/2000/svg">
<g id="#000000ff">
<path fill="#000000" opacity="1.00" d=" M 730.51 39.56 C 731.59 37.76 732.64 35.49 734.95 35.08 C 737.44 34.80 740.70 34.33 742.43 36.63 C 744.39 39.79 744.08 44.00 742.08 47.07 C 739.50 51.16 735.77 54.69 734.76 59.61 C 732.30 70.27 726.10 79.85 725.16 90.91 C 724.83 95.54 721.09 99.06 720.76 103.71 C 719.49 113.71 720.53 124.46 715.70 133.68 C 713.25 136.70 710.41 140.96 705.92 140.17 C 699.39 139.79 694.95 134.40 689.59 131.38 C 681.95 126.96 675.23 121.20 668.62 115.40 C 664.58 111.63 659.81 108.80 655.38 105.53 C 653.57 107.10 652.03 109.09 651.63 111.51 C 650.78 117.01 651.34 122.82 649.05 128.04 C 646.76 133.00 648.30 138.66 646.73 143.79 C 644.03 148.33 637.91 149.04 633.29 147.63 C 631.00 146.14 628.27 144.28 628.33 141.19 C 626.40 122.40 632.65 104.19 636.66 86.09 C 637.94 81.56 638.37 76.73 640.35 72.44 C 645.34 67.64 654.30 67.66 658.83 73.13 C 662.77 78.31 664.76 84.92 669.81 89.25 C 673.59 92.41 676.71 96.26 680.54 99.37 C 685.37 103.50 691.01 106.51 696.28 110.03 C 703.20 102.86 706.53 93.32 710.46 84.38 C 712.31 79.95 714.51 75.66 715.90 71.06 C 719.23 59.92 724.78 49.62 730.51 39.56 Z" />
<path fill="#000000" opacity="1.00" d=" M 103.03 36.75 C 107.51 35.46 112.53 35.04 116.92 36.90 C 121.04 38.58 122.89 43.77 121.57 47.86 C 120.66 51.84 119.20 56.60 114.68 57.69 C 105.79 58.90 96.62 59.71 88.31 63.38 C 83.28 65.95 78.11 69.34 75.82 74.75 C 74.16 78.87 72.55 83.03 71.57 87.37 C 73.94 88.30 76.29 89.83 78.95 89.40 C 95.99 87.54 113.02 85.64 130.05 83.71 C 131.91 83.48 133.88 83.50 135.57 84.41 C 137.45 87.39 135.85 91.20 133.05 92.91 C 128.76 96.54 122.85 96.06 117.84 97.98 C 111.90 100.19 105.82 102.00 99.65 103.46 C 90.39 109.81 78.12 107.16 68.41 112.55 C 66.97 113.62 65.52 114.68 64.04 115.69 C 63.04 119.74 63.14 123.94 62.73 128.08 C 61.25 144.77 57.52 161.22 56.98 178.01 C 56.98 182.73 55.12 187.42 51.96 190.90 C 49.35 193.86 44.95 194.77 41.23 193.76 C 38.92 193.21 37.91 190.80 37.15 188.80 C 35.41 184.60 37.39 180.19 38.01 175.96 C 39.44 167.70 41.52 159.57 43.65 151.46 C 45.32 145.80 44.04 139.85 44.72 134.07 C 45.33 123.35 48.91 111.50 42.81 101.67 C 44.16 96.68 47.48 92.72 50.33 88.56 C 54.50 76.92 55.61 64.00 62.44 53.41 C 64.53 50.24 66.91 46.69 70.84 45.75 C 81.56 42.73 92.31 39.81 103.03 36.75 Z" />
<path fill="#000000" opacity="1.00" d=" M 832.82 52.83 C 835.48 51.36 838.04 53.44 840.44 54.43 C 844.64 56.52 849.45 56.30 854.02 56.26 C 859.99 56.14 865.95 56.63 871.92 56.79 C 880.19 56.72 888.11 59.82 895.42 63.43 C 903.63 67.52 911.15 74.15 914.09 83.07 C 914.64 88.38 915.44 93.69 915.61 99.03 C 915.66 106.08 909.58 111.06 903.76 113.86 C 896.25 118.93 887.88 122.62 879.23 125.24 C 865.76 128.42 852.55 132.60 838.89 134.94 C 835.41 135.48 832.20 136.95 829.07 138.46 C 830.56 143.18 829.24 148.11 827.62 152.60 C 822.97 154.59 817.58 154.72 812.75 153.47 C 810.50 146.65 807.63 139.99 806.12 132.96 C 804.95 127.51 808.42 122.92 811.26 118.70 C 813.63 108.78 816.87 99.10 820.67 89.63 C 821.76 87.18 821.92 84.48 822.22 81.84 C 822.71 75.83 827.81 71.15 827.37 64.95 C 827.17 60.41 827.95 54.68 832.82 52.83 M 845.59 74.90 C 844.19 87.01 837.65 97.48 833.73 108.79 C 836.67 109.60 839.74 109.84 842.57 108.50 C 847.01 106.30 852.42 108.64 854.87 112.71 C 867.19 113.70 878.28 107.30 889.61 103.52 C 893.89 102.35 897.11 99.15 900.07 96.01 C 901.91 94.07 901.14 90.98 899.68 89.06 C 895.49 82.35 887.72 78.75 880.04 78.06 C 868.56 76.95 856.78 78.34 845.59 74.90 Z" />
<path fill="#000000" opacity="1.00" d=" M 1056.94 53.89 C 1060.20 51.98 1064.49 52.38 1067.57 54.49 C 1069.45 55.83 1070.19 58.14 1071.23 60.11 C 1070.32 63.53 1069.48 66.96 1068.62 70.39 C 1052.96 77.64 1037.70 85.75 1023.23 95.17 C 1029.75 94.10 1036.32 93.03 1042.95 93.68 C 1054.35 93.33 1065.78 94.90 1076.67 98.32 C 1078.44 98.93 1080.58 99.68 1081.20 101.69 C 1083.15 107.56 1081.48 114.03 1078.47 119.25 C 1074.09 122.33 1069.75 125.53 1064.89 127.83 C 1051.80 133.06 1038.85 138.70 1025.75 143.93 C 1022.12 145.30 1019.11 148.89 1014.88 147.96 C 1012.00 147.58 1008.25 148.32 1006.26 145.68 C 1003.49 142.15 1005.62 137.21 1008.10 134.14 C 1013.28 128.63 1021.39 128.79 1028.24 127.16 C 1031.94 126.45 1034.37 123.29 1037.65 121.72 C 1042.16 119.62 1046.31 116.85 1050.93 114.97 C 1052.86 114.26 1054.47 112.97 1055.45 111.13 C 1046.98 110.80 1038.53 111.75 1030.06 111.36 C 1022.70 111.62 1015.34 112.38 1007.96 112.13 C 1005.02 112.38 1003.09 109.83 1000.93 108.30 C 998.82 106.06 995.18 104.52 994.97 101.09 C 994.92 98.28 994.21 94.78 996.62 92.71 C 1006.89 82.60 1018.92 74.37 1031.64 67.64 C 1040.10 63.11 1048.53 58.53 1056.94 53.89 Z" />
<path fill="#000000" opacity="1.00" d=" M 385.11 55.10 C 389.90 54.19 397.04 55.35 398.09 61.11 C 399.45 75.49 396.35 90.12 390.07 103.07 C 388.94 105.58 388.61 108.35 387.84 110.98 C 386.79 114.48 384.27 117.42 383.78 121.11 C 382.94 127.39 383.99 133.70 384.22 139.98 C 384.40 141.89 383.58 143.90 381.79 144.77 C 376.92 146.11 371.05 145.43 367.46 141.60 C 364.74 138.09 364.66 133.30 365.43 129.12 C 366.45 122.44 370.39 116.60 371.19 109.88 C 371.56 106.77 371.52 103.60 372.35 100.57 C 375.84 87.05 379.39 73.55 382.76 60.01 C 383.32 58.32 383.54 56.20 385.11 55.10 Z" />
<path fill="#000000" opacity="1.00" d=" M 218.92 63.76 C 227.21 63.95 234.03 58.18 241.87 56.40 C 246.89 56.02 251.92 56.34 256.94 56.23 C 262.85 56.07 269.11 57.37 273.70 61.29 C 277.36 64.45 279.68 69.77 277.58 74.45 C 275.69 78.98 273.17 83.30 270.41 87.35 C 261.55 96.58 249.21 101.28 239.72 109.77 C 246.09 113.32 253.27 114.83 260.21 116.81 C 269.61 119.00 279.37 119.14 288.77 121.29 C 292.55 123.62 292.35 128.81 290.56 132.37 C 285.27 134.50 279.86 137.13 273.99 136.68 C 263.94 136.36 254.03 134.41 244.06 133.27 C 238.80 132.90 234.38 129.61 229.28 128.62 C 221.64 126.97 213.80 126.57 206.12 125.16 C 199.47 134.14 199.39 145.76 197.33 156.29 C 196.69 160.89 195.03 165.23 193.88 169.70 C 192.65 176.95 193.80 184.40 192.58 191.64 C 191.86 194.53 188.28 194.20 185.98 194.39 C 183.87 194.29 180.61 194.52 179.97 191.93 C 176.38 182.13 177.08 171.31 179.21 161.26 C 186.62 129.56 193.96 97.85 201.43 66.17 C 201.90 62.45 205.96 61.14 209.12 60.55 C 212.90 59.51 215.42 63.43 218.92 63.76 M 240.80 77.79 C 233.48 81.23 226.15 84.67 218.62 87.64 C 216.31 92.06 215.49 97.00 214.68 101.85 C 220.97 100.05 226.62 96.65 231.98 92.98 C 240.01 88.00 246.40 80.87 254.46 75.92 C 249.87 76.12 245.12 75.95 240.80 77.79 Z" />
<path fill="#000000" opacity="1.00" d=" M 525.20 60.23 C 529.90 59.47 534.38 55.97 539.27 57.76 C 543.79 58.87 546.23 63.58 546.48 67.93 C 546.44 70.98 546.26 74.67 543.27 76.36 C 532.93 82.88 519.44 79.52 509.04 85.91 C 507.20 86.89 505.63 88.25 504.20 89.74 C 508.52 88.97 512.75 87.67 517.12 87.11 C 526.36 85.90 535.71 86.35 545.00 86.73 C 551.61 86.98 558.28 86.24 564.86 87.07 C 568.87 89.73 567.98 96.64 563.89 98.82 C 557.95 102.29 550.77 99.70 544.43 101.43 C 535.82 105.93 525.92 106.70 516.58 108.74 C 511.49 110.57 506.06 111.71 501.38 114.49 C 497.10 117.13 496.69 122.51 495.47 126.90 C 499.96 127.32 503.86 124.87 508.09 123.89 C 521.52 121.01 534.66 116.95 548.02 113.78 C 549.51 113.26 551.18 113.69 552.14 114.99 C 554.41 117.70 553.81 121.65 552.63 124.70 C 549.45 128.37 544.76 130.15 540.91 132.98 C 536.35 136.61 530.65 138.18 525.33 140.33 C 515.18 143.46 505.16 147.00 494.92 149.81 C 488.10 151.10 480.49 152.54 474.19 148.72 C 472.04 143.43 470.18 137.73 471.19 131.96 C 471.75 127.42 473.88 123.30 476.13 119.38 C 475.58 114.51 473.67 109.58 474.79 104.67 C 475.53 100.82 479.90 99.08 480.45 95.17 C 482.74 85.51 486.54 75.79 493.65 68.64 C 495.88 66.54 498.32 64.27 501.46 63.77 C 509.35 62.44 517.34 61.73 525.20 60.23 Z" />
</g>
<g id="#00aff9ff">
<path fill="#00aff9" opacity="1.00" d=" M 949.49 94.23 C 955.85 91.95 964.06 94.41 967.84 100.20 C 970.21 103.89 968.69 108.53 967.42 112.34 C 965.12 115.10 961.06 114.97 957.80 114.89 C 955.63 114.75 952.40 114.56 951.92 111.90 C 949.99 106.39 945.23 99.81 949.49 94.23 Z" />
<path fill="#00aff9" opacity="1.00" d=" M 423.05 108.22 C 425.06 103.81 429.23 100.77 433.97 99.95 C 438.27 98.92 444.36 98.70 446.72 103.27 C 448.72 107.90 447.34 113.15 447.00 117.99 C 445.24 123.17 438.54 122.89 434.08 122.22 C 431.41 122.32 430.38 119.68 429.19 117.81 C 427.28 114.51 424.19 111.96 423.05 108.22 Z" />
</g>
<g id="#f9b826ff">
<path fill="#f9b826" opacity="1.00" d=" M 757.08 100.24 C 759.88 99.04 762.76 97.81 765.78 97.29 C 768.69 97.80 771.64 98.41 774.38 99.55 C 777.17 103.82 775.59 108.97 774.77 113.57 C 773.87 116.91 770.85 119.01 767.73 120.04 C 761.63 119.27 756.72 114.59 755.16 108.72 C 753.93 105.92 753.91 101.73 757.08 100.24 Z" />
<path fill="#f9b826" opacity="1.00" d=" M 322.07 100.13 C 326.34 97.88 332.33 97.45 336.23 100.67 C 339.62 104.60 336.84 110.18 338.82 114.73 C 338.37 116.01 337.92 117.30 337.47 118.59 C 332.47 120.74 326.84 119.96 321.69 118.82 C 320.01 115.83 318.11 112.56 318.91 108.99 C 319.52 105.99 318.80 101.78 322.07 100.13 Z" />
</g>
<g id="#f00022ff">
<path fill="#f00022" opacity="1.00" d=" M 591.47 100.68 C 594.72 99.90 598.44 99.88 601.41 101.59 C 607.03 106.53 607.23 114.73 605.53 121.47 C 600.90 122.94 595.70 123.11 591.00 121.83 C 588.59 119.41 588.23 115.84 587.12 112.77 C 586.46 110.60 585.22 108.39 585.91 106.07 C 586.66 103.45 588.95 101.54 591.47 100.68 Z" />
<path fill="#f00022" opacity="1.00" d=" M 144.40 102.26 C 148.59 100.98 153.87 101.54 156.78 105.14 C 159.20 108.14 163.29 110.66 163.10 114.97 C 163.03 118.35 162.43 122.42 159.32 124.40 C 155.84 126.89 151.21 126.35 147.23 125.73 C 144.20 125.29 142.17 122.96 140.24 120.81 C 134.54 115.51 137.49 105.04 144.40 102.26 Z" />
</g>
</svg>
